# xmcd CD database file
#
# Track frame offsets:
#	150
#	10073
#	29269
#	50360
#	53095
#	62390
#	74305
#	89795
#	95965
#	110874
#
# Disc length: 1485 seconds
#
# Revision: 0
# Processed by: cddbd v1.5.2PL0 Copyright (c) Steve Scherf et al.
# Submitted via: CDex 1.51
#
DISCID=8905cb0a
DTITLE=KFM - BallerBob
DYEAR=2010
DGENRE=Country
TTITLE0=Sonntags gehn wir in die Timbertownbar
TTITLE1=Weit ist der Weg
TTITLE2=Im Zug nach Santa Fe
TTITLE3=Tanz der Indianer
TTITLE4=Indianerliedchen
TTITLE5=Lied der Weiberwirtschaft
TTITLE6=Sehnsuchtsduett
TTITLE7=Der Wilde Westen ist nur halb so wild
TTITLE8=Remix Tanz der Indianer
TTITLE9=whistle
EXTD=YEAR: 2010
EXTT0=
EXTT1=
EXTT2=
EXTT3=
EXTT4=
EXTT5=
EXTT6=
EXTT7=
EXTT8=
EXTT9=
PLAYORDER=
